<?xml version="1.0" encoding="utf-8"?>
<!-- Generator: Adobe Illustrator 23.0.0, SVG Export Plug-In . SVG Version: 6.00 Build 0)  -->
<svg version="1.1" id="Calque_1" xmlns="http://www.w3.org/2000/svg" xmlns:xlink="http://www.w3.org/1999/xlink" x="0px" y="0px"
	 viewBox="0 0 839.8 523.4" style="enable-background:new 0 0 839.8 523.4;" xml:space="preserve">
<path style="fill:#F0F0F0;" d="M311.2,479.8c3.7,5,8.3,9.3,13.6,12.6c1.1,0.7,2.3,1.4,3.4,2h27.5c-0.3-0.7-0.6-1.3-1-2
	c-17.5-36.9-9.5-80.9,19.8-109.3c-16.6,5.1-32,15.2-42.1,29.4c-4.9,6.9-8.4,14.7-10.2,23c-1.7-16.5,1-33.2,7.7-48.4
	c-13.5,11-24,26-28,43C298,447,300.9,465.8,311.2,479.8z"/>
<path style="fill:#FFB6B6;" d="M551.9,159.2c-6.2-0.4-11.5,4.2-12,10.3c0,0.7,0,1.3,0,2l-36,16.9l17.6,10.8l31.5-17.7
	c6.1-1.1,10.2-6.9,9.2-13C561.4,163.4,557.1,159.6,551.9,159.2z"/>
<polygon style="fill:#FFB6B6;" points="403,483.8 415.5,483.8 421.4,435.8 403,435.8 "/>
<path style="fill:#2F2E41;" d="M399.9,479.7l24.5,0h0c8.6,0,15.6,7,15.6,15.6v0.5l-40.1,0L399.9,479.7z"/>
<polygon style="fill:#FFB6B6;" points="466.5,483.8 478.9,483.8 484.8,435.8 466.5,435.8 "/>
<path style="fill:#2F2E41;" d="M463.3,479.7l24.5,0h0c8.6,0,15.6,7,15.6,15.6v0.5l-40.1,0L463.3,479.7z"/>
<polygon style="fill:#2F2E41;" points="474.8,235.2 481.1,248.7 492.4,370.2 483.6,474.6 462.9,474.6 438.5,310 427.1,470.8 
	399.2,469.6 393.8,251.7 "/>
<path style="fill:#E4E4E4;" d="M374.2,123.1l26.1-10.6l36.9,2.1l32.8,12l10.9,122.3c-28.5,15.6-57.5,19.8-86.9,8.7l-27.3-79.6
	L374.2,123.1z"/>
<path style="fill:#E4E4E4;" d="M459.9,129.7l11.6-3.2c0,0,8.8-5.7,11.7,11.3s17.7,43.4,17.7,43.4l25.4-13.6l11.8,25.7L498,217.6
	L455.7,175L459.9,129.7z"/>
<path id="a80a6b0c-a21b-4eb6-b764-70793a425e46-1543" style="fill:#FFB6B6;" d="M396.3,89.8L396.3,89.8
	c-5.9-13.4,0.2-29.2,13.6-35.1c13.4-5.9,29.2,0.2,35.1,13.6c0,0,0,0,0,0l0.2,0.4c5.8,13.5-0.4,29.2-13.9,35
	C417.7,109.5,402.1,103.3,396.3,89.8L396.3,89.8z"/>
<path id="b51b91e7-03ed-46d5-9b2a-c48431fd2f0d-1544" style="fill:#2F2E41;" d="M432.4,65.5c5.5,1,14.1,4.5,18.8,0.4
	c-2.3-2.7-5.3-4.9-8.6-6.3c-0.7-0.2-1.3-0.6-1.8-1c-1.6-1.6-0.4-4.5-1.1-6.7c-0.7-1.6-2.2-2.8-3.9-3.2c-1.6-0.5-3.4-0.6-5-1.2
	c-3.8-1.4-6.6-5.6-10.5-6.7c-3.4-1-6.9,0.5-9.8,2.3c-3,1.8-5.9,3.9-9.3,4.3c-2.6,0.2-4.2,4.5-6.8,4.6c-5.4,0.3-5.1-3.3-5.5,2.4
	c-0.2,3.4-5.1,10.2-5,13.6c0.1,2.3-0.3,4.5-0.3,6.7c0.1,4.3,1.9,8.4,4.8,11.5c2.5,2.5,5.7,4.3,7.8,7.2c1.1,1.5,1.8,3.3,3.1,4.7
	c1.3,1.4,3.4,2.2,4.8,1.2c1.4-1,1.4-3.1,2.1-4.8c0.9-2.1,3-3.3,5.2-3.2c2.3,0.3,4.2,1.9,5,4.1c-0.7-3.6-2.4-7-3.1-10.6
	c-0.7-3.6,0.2-8,3.3-9.4c1.3-0.6,3.1-0.8,3.7-2.2c0.3-0.9,0-1.9,0.2-2.8C421.2,65.9,428.8,64.7,432.4,65.5z"/>
<path style="fill:#FFB6B6;" d="M397.3,256c-0.9-6.1-6.6-10.3-12.7-9.4c-0.7,0.1-1.3,0.2-1.9,0.5l-24.3-31.5l-6.7,19.5l24.1,26.9
	c2.4,5.7,8.9,8.5,14.7,6.1C395.3,266.2,398.1,261.2,397.3,256L397.3,256z"/>
<path style="fill:#E4E4E4;" d="M382.6,129l-8.4-5.9c0,0-19.2-1.1-22,14.6l-35.2,57.8l43.6,60.1l21.1-22.3l-26.7-31.2l22.4-41.1
	L382.6,129z"/>
<path style="fill:#3F3D56;" d="M586.9,138.2h-0.4v-12c0-3.9-3.1-7-7-7h-25.5c-3.9,0-7,3.1-7,7v0v66.1c0,3.9,3.1,7,7,7c0,0,0,0,0,0
	h25.5c3.9,0,7-3.1,7-7c0,0,0,0,0,0v-45.5h0.4L586.9,138.2z"/>
<path style="fill:#5458F7;" d="M579.7,121h-3.3c0.5,1.3-0.1,2.7-1.4,3.2c-0.3,0.1-0.6,0.2-0.9,0.2h-14.6c-1.4,0-2.5-1.1-2.5-2.5
	c0-0.3,0.1-0.6,0.2-0.9h-3.1c-2.9,0-5.2,2.3-5.2,5.2l0,0v66c0,2.9,2.3,5.2,5.2,5.2l0,0h25.6c2.9,0,5.2-2.3,5.2-5.2l0,0v-66
	C584.9,123.3,582.6,121,579.7,121z"/>
<path style="fill:#CACACA;" d="M614,496.4H233c-0.6,0-1-0.4-1-1s0.4-1,1-1h381c0.6,0,1,0.4,1,1S614.6,496.4,614,496.4z"/>
</svg>
