<?xml version="1.0" encoding="utf-8"?>
<!-- Generator: Adobe Illustrator 23.0.0, SVG Export Plug-In . SVG Version: 6.00 Build 0)  -->
<svg version="1.1" id="Calque_1" xmlns="http://www.w3.org/2000/svg" xmlns:xlink="http://www.w3.org/1999/xlink" x="0px" y="0px"
	 viewBox="0 0 626.1 698.3" style="enable-background:new 0 0 626.1 698.3;" xml:space="preserve">
<title>woman</title>
<linearGradient id="SVGID_1_" gradientUnits="userSpaceOnUse" x1="560.0294" y1="227.7572" x2="560.0294" y2="404.8372" gradientTransform="matrix(1 0 0 -1 -286.94 597.16)">
	<stop  offset="0" style="stop-color:#808080;stop-opacity:0.25"/>
	<stop  offset="0.54" style="stop-color:#808080;stop-opacity:0.12"/>
	<stop  offset="1" style="stop-color:#808080;stop-opacity:0.1"/>
</linearGradient>
<path style="fill:url(#SVGID_1_);" d="M419.6,309.2c0.1-0.4,0.2-0.9,0.3-1.3c0-0.2,0-0.3,0.1-0.5s0.1-0.6,0.1-0.9s0-0.4,0-0.6
	s0-0.5,0-0.8s0-0.4,0-0.6s0-0.6-0.1-0.8s0-0.4-0.1-0.5c0-0.3-0.1-0.6-0.2-1V302l-22.3-100.5c-14.5,2-6.8,0.2-14.5,2s0,0-13.5,4.4
	l5.6,25.3L355.1,203c-2.3-3.5-6-5.8-10.2-6.4c-5-0.5-9.9-1.5-14.8-2.8c-3.4-1-7-1.5-10.5-1.5h-34c-3.6,0-7.1,0.5-10.5,1.5
	c-4.8,1.3-9.8,2.3-14.8,2.8c-4.2,0.5-7.9,2.8-10.2,6.4l-51.6,77.5l-49.8-65.8c-11.9,7.8-5.7,2.9-11.9,7.8s0,0-10.7,10.1l61.8,81.6
	c2.4,3.2,6,5.2,10,5.6h0.3h0.9h0.8h0.5c0.4,0,0.8-0.1,1.2-0.1h0c4-0.6,7.5-2.9,9.7-6.3l34.9-51l5.3,84.1c0,12.7,11.2,23,23.6,23
	h55.3c12.4,0,22.6-10.4,22.6-23l4.3-84.1l36.8,51c0,0.1,0.1,0.1,0.1,0.2s0.2,0.3,0.3,0.5s0.4,0.5,0.6,0.7c0,0.1,0.1,0.1,0.1,0.2
	c1.5,1.7,3.4,3,5.5,3.9c0.1,0,0.1,0,0.2,0.1c0.4,0.1,0.7,0.3,1.1,0.4c0.2,0.1,0.4,0.1,0.6,0.1l0.8,0.2c0.2,0,0.5,0.1,0.7,0.1
	l0.6,0.1h0.7h0.7h0.5c0.3,0,0.6,0,0.9-0.1l0.3,0c0.4,0,0.8-0.1,1.2-0.2l0,0h0.1c0.4-0.1,0.9-0.2,1.3-0.4h0c1.2-0.4,2.4-1,3.4-1.7
	C416.6,315.4,418.6,312.5,419.6,309.2L419.6,309.2z"/>
<linearGradient id="SVGID_2_" gradientUnits="userSpaceOnUse" x1="254.14" y1="53.7822" x2="281.85" y2="53.7822" gradientTransform="matrix(1 0 0 -1 0 698)">
	<stop  offset="0" style="stop-color:#808080;stop-opacity:0.25"/>
	<stop  offset="0.54" style="stop-color:#808080;stop-opacity:0.12"/>
	<stop  offset="1" style="stop-color:#808080;stop-opacity:0.1"/>
</linearGradient>
<rect x="254.1" y="627" style="fill:url(#SVGID_2_);" width="27.7" height="34.5"/>
<linearGradient id="SVGID_3_" gradientUnits="userSpaceOnUse" x1="322.95" y1="53.7822" x2="350.66" y2="53.7822" gradientTransform="matrix(1 0 0 -1 0 698)">
	<stop  offset="0" style="stop-color:#808080;stop-opacity:0.25"/>
	<stop  offset="0.54" style="stop-color:#808080;stop-opacity:0.12"/>
	<stop  offset="1" style="stop-color:#808080;stop-opacity:0.1"/>
</linearGradient>
<rect x="323" y="627" style="fill:url(#SVGID_3_);" width="27.7" height="34.5"/>
<linearGradient id="SVGID_4_" gradientUnits="userSpaceOnUse" x1="528.74" y1="113.6822" x2="653.69" y2="113.6822" gradientTransform="matrix(1 0 0 -1 -286.94 597.16)">
	<stop  offset="0" style="stop-color:#808080;stop-opacity:0.25"/>
	<stop  offset="0.54" style="stop-color:#808080;stop-opacity:0.12"/>
	<stop  offset="1" style="stop-color:#808080;stop-opacity:0.1"/>
</linearGradient>
<path style="fill:url(#SVGID_4_);" d="M326.2,328.3h-45.4c-29.2,0-39,23.6-39,51.5l8.8,258.8h39.8V435.2c0-6.5,5-12,11.5-12.7
	c7.9-0.9,14.7,5,14.7,12.4v203.8h39.8l10.4-258.8C366.7,351.9,355.3,328.3,326.2,328.3z"/>
<linearGradient id="SVGID_5_" gradientUnits="userSpaceOnUse" x1="525.0884" y1="-81.7501" x2="568.79" y2="-81.7501" gradientTransform="matrix(1 0 0 -1 -286.94 597.16)">
	<stop  offset="0" style="stop-color:#808080;stop-opacity:0.25"/>
	<stop  offset="0.54" style="stop-color:#808080;stop-opacity:0.12"/>
	<stop  offset="1" style="stop-color:#808080;stop-opacity:0.1"/>
</linearGradient>
<path style="fill:url(#SVGID_5_);" d="M281.9,661.5v34.8h-39.4c-2.3,0.1-4.2-1.7-4.3-3.9c-0.1-1.2,0.4-2.4,1.3-3.2
	c7.9-7.3,18-18.8,14.7-27.7"/>
<linearGradient id="SVGID_6_" gradientUnits="userSpaceOnUse" x1="610.33" y1="-81.7501" x2="654.0415" y2="-81.7501" gradientTransform="matrix(1 0 0 -1 -286.94 597.16)">
	<stop  offset="0" style="stop-color:#808080;stop-opacity:0.25"/>
	<stop  offset="0.54" style="stop-color:#808080;stop-opacity:0.12"/>
	<stop  offset="1" style="stop-color:#808080;stop-opacity:0.1"/>
</linearGradient>
<path style="fill:url(#SVGID_6_);" d="M323.4,661.5v34.8h39.4c2.3,0.1,4.2-1.7,4.3-3.9c0.1-1.2-0.4-2.4-1.3-3.2
	c-7.9-7.3-18-18.8-14.7-27.7"/>
<rect x="256.1" y="623.8" style="fill:#FFD9CB;" width="26.2" height="34.2"/>
<rect x="321.2" y="623.8" style="fill:#FFD9CB;" width="26.2" height="34.2"/>
<path style="fill:#212121;" d="M324.2,328.3h-42.9c-27.6,0-36.9,23.4-36.9,51l8.3,256.1h37.7V434.1c-0.1-6.3,4.6-11.7,10.9-12.6
	c6.8-0.8,13,4,13.8,10.8c0.1,0.5,0.1,1,0.1,1.4v201.6h37.7l9.8-256.1C362.6,351.7,351.8,328.3,324.2,328.3z"/>
<path style="fill:#212121;" d="M282.3,658v34.5h-37.2c-2.3,0-4.1-1.8-4.1-4.1c0-1.1,0.5-2.2,1.3-3c7.5-7.2,17-18.5,13.9-27.4"/>
<path style="fill:#212121;" d="M321.6,658v34.5h37.3c2.3,0,4.1-1.8,4.1-4.1c0-1.1-0.5-2.2-1.3-3c-7.5-7.2-17-18.5-13.9-27.4"/>
<linearGradient id="SVGID_7_" gradientUnits="userSpaceOnUse" x1="303.06" y1="493.3572" x2="303.06" y2="699.9972" gradientTransform="matrix(1 0 0 -1 0 698)">
	<stop  offset="0" style="stop-color:#808080;stop-opacity:0.25"/>
	<stop  offset="0.54" style="stop-color:#808080;stop-opacity:0.12"/>
	<stop  offset="1" style="stop-color:#808080;stop-opacity:0.1"/>
</linearGradient>
<ellipse style="fill:url(#SVGID_7_);" cx="303.1" cy="101.3" rx="98.1" ry="103.3"/>
<ellipse style="fill:#5458F7;" cx="303.1" cy="101.3" rx="93.2" ry="98.2"/>
<ellipse style="fill:#5458F7;" cx="301.7" cy="108.5" rx="76.9" ry="78.6"/>
<ellipse style="opacity:0.3;enable-background:new    ;" cx="302.7" cy="105.5" rx="76.9" ry="78.6"/>
<path style="fill:#BDBDBD;" d="M358.6,195.2l12.7-44.5c0.7-2.4,3.1-3.8,5.5-3.1l17.7,5c2.4,0.7,3.8,3.1,3.1,5.5l-12.7,44.5
	c-0.7,2.4-3.1,3.8-5.5,3.1l-17.7-5C359.3,200.1,358,197.6,358.6,195.2z"/>
<path style="fill:#FFCFBE;" d="M129.8,187.1l1.5-0.8c1-0.5,2.2-0.1,2.7,0.9l9.3,18.3c0.5,1,0.1,2.2-0.9,2.7l-1.5,0.8
	c-1,0.5-2.2,0.1-2.7-0.9l-9.3-18.3C128.4,188.7,128.8,187.5,129.8,187.1z"/>
<path style="fill:#FFCFBE;" d="M115.3,196.7l0.9-1.5c0.5-1,1.8-1.3,2.7-0.7l17.4,10.1c1,0.5,1.3,1.8,0.7,2.7l-0.9,1.5
	c-0.5,1-1.8,1.3-2.7,0.7L116,199.4C115,198.9,114.7,197.7,115.3,196.7z"/>
<path style="fill:#FFCFBE;" d="M127.8,208c-2.2,1.3-13.9,8.9,1.1,22.9c1.9,1.8,4.8,1.9,6.9,0.4l10.6-7.9c1.9-1.4,2.7-3.9,1.9-6.1
	l-3-8.8c-1.5-4.4-6.3-6.7-10.7-5.2c-1,0.3-1.9,0.8-2.7,1.5l-3.3,2.8C128.3,207.7,128.1,207.8,127.8,208z"/>
<path style="fill:#FFCFBE;" d="M391.4,174.1h1.7c1.1,0,2,0.9,2,2v11.7c0,1.1-0.9,2-2,2h-1.7c-1.1,0-2-0.9-2-2v-11.7
	C389.4,175,390.3,174.1,391.4,174.1z"/>
<path style="fill:#FFCFBE;" d="M379.5,186.3c0,0-19.8,0.3-7.2,25.3l21-4.3l2.2-21c0.2-1.6-1-3.1-2.6-3.4c-0.4-0.1-0.8,0-1.2,0.1
	L379.5,186.3z"/>
<path style="fill:#FFCFBE;" d="M376.4,166.1l1.5-0.7c1-0.5,2.2,0,2.6,1l9,19.2c0.5,1,0,2.2-1,2.6l-1.5,0.7c-1,0.5-2.2,0-2.6-1
	l-9-19.2C375,167.7,375.4,166.5,376.4,166.1z"/>
<path style="fill:#FFCFBE;" d="M372.7,169.2l1.5-0.7c1-0.5,2.2,0,2.6,1l7.6,16.1c0.5,1,0,2.2-1,2.6l-1.5,0.7c-1,0.5-2.2,0-2.6-1
	l-7.6-16.1C371.3,170.8,371.7,169.6,372.7,169.2z"/>
<path style="fill:#FFCFBE;" d="M368.9,174.3l1.5-0.7c1-0.5,2.2,0,2.6,1l7.1,15.1c0.5,1,0,2.2-1,2.6l-1.5,0.7c-1,0.5-2.2,0-2.6-1
	l-7.1-15.1C367.4,175.9,367.9,174.7,368.9,174.3z"/>
<path style="fill:#FFCFBE;" d="M365.7,180.8l1.5-0.7c1-0.5,2.2,0,2.6,1l6,12.8c0.5,1,0,2.2-1,2.6l-1.5,0.7c-1,0.5-2.2,0-2.6-1
	l-6-12.8C364.3,182.5,364.7,181.3,365.7,180.8z"/>
<path style="fill:#5458F7;" d="M417.6,306.9c0.1-0.4,0.2-0.8,0.3-1.3c0-0.1,0-0.3,0.1-0.5s0.1-0.6,0.1-0.9s0-0.4,0-0.6s0-0.5,0-0.8
	s0-0.4,0-0.6s0-0.5,0-0.8s0-0.3-0.1-0.5s-0.1-0.6-0.2-0.9c0,0,0-0.1,0-0.1l-22.1-97.5c-14.3,1.9-6.7,0.2-14.3,1.9s0,0-13.3,4.3
	l5.5,24.5l-19.8-29.2c-2.3-3.4-6-5.7-10.1-6.2c-4.9-0.5-9.8-1.4-14.6-2.7c-3.4-1-6.9-1.5-10.4-1.5h-33.6c-3.5,0-7,0.5-10.4,1.5
	c-4.8,1.3-9.7,2.2-14.6,2.7c-4.1,0.5-7.8,2.7-10.1,6.2l-51,75.1l-49.3-63.8c-11.8,7.6-5.6,2.8-11.8,7.6s0,0-10.6,9.8l61.1,79.1
	c2.4,3.1,6,5.1,9.9,5.4c0.1,0,0.2,0,0.3,0h0.9h0.7h0.5c0.4,0,0.8-0.1,1.1-0.1h0.1c3.9-0.6,7.4-2.8,9.6-6.1l36.4-53.7l4.2,85.8
	c0,12.3,10,22.3,22.3,22.3h54.7c12.3,0,22.3-10,22.3-22.3l4.2-85.8l36.5,53.8l0.1,0.2l0.3,0.5c0.2,0.3,0.4,0.5,0.6,0.7l0.2,0.2
	c1.5,1.7,3.3,2.9,5.4,3.8c0.1,0,0.1,0,0.2,0.1c0.4,0.1,0.7,0.3,1.1,0.4l0.5,0.1l0.7,0.2c0.2,0,0.5,0.1,0.7,0.1l0.6,0.1h0.7h0.7h0.5
	c0.3,0,0.6,0,0.9-0.1l0.3,0c0.4,0,0.8-0.1,1.1-0.2l0,0h0.1c0.4-0.1,0.8-0.2,1.3-0.4l0,0c1.2-0.4,2.3-0.9,3.4-1.6
	C414.6,313,416.6,310.2,417.6,306.9L417.6,306.9z"/>
<circle style="fill:#E53935;" cx="301.9" cy="107.8" r="67.4"/>
<path style="fill:#FFE0B2;" d="M303.1,158.8L303.1,158.8c7.6,0,13.8,6.2,13.8,13.8V196c0,7.6-6.2,13.8-13.8,13.8l0,0
	c-7.6,0-13.8-6.2-13.8-13.8v-23.5C289.3,165,295.5,158.8,303.1,158.8z"/>
<circle style="fill:#FFE0B2;" cx="301.9" cy="119.4" r="52.1"/>
<circle style="fill:#DB7657;" cx="284.5" cy="105.1" r="3.1"/>
<circle style="fill:#DB7657;" cx="319.3" cy="105.1" r="3.1"/>
<path style="fill:#FFFFFF;" d="M314.8,137c0,4.2-5.8,7.6-12.9,7.6s-12.9-3.5-12.9-7.6S314.8,132.8,314.8,137z"/>
<path style="fill:#E53935;" d="M276.2,62.8c0,0-8.4,42,81.5,33.6l-22.2-36.6L276.2,62.8z"/>
<ellipse transform="matrix(0.9419 -0.3358 0.3358 0.9419 -24.5523 90.6267)" style="fill:#FFCFBE;" cx="249.8" cy="116.3" rx="5.4" ry="9.3"/>
<rect x="296.5" y="101.9" style="fill:#5458F7;" width="13" height="6.3"/>
<circle style="fill:#FFFFFF;" cx="382.3" cy="161.3" r="2.8"/>
<path style="fill:#FFFFFF;" d="M299.7,263.8c-7.9-7.9-20.7-7.8-28.6,0.1c-7.9,7.9-7.8,20.7,0.1,28.6l28.7,28.5l28.5-28.7
	c8-7.8,8.2-20.6,0.4-28.6c-7.8-8-20.6-8.2-28.6-0.4C300.1,263.5,299.9,263.7,299.7,263.8L299.7,263.8z"/>
<ellipse transform="matrix(0.3401 -0.9404 0.9404 0.3401 123.636 412.6575)" style="fill:#FFCFBE;" cx="355.9" cy="118.2" rx="9.3" ry="5.4"/>
<circle style="fill:#FFFFFF;" cx="282.5" cy="189.8" r="3.8"/>
<path style="fill:#FFFFFF;" d="M281.8,189.8h1c0.6,0,1.2,0.5,1.2,1.1v36.8c0,0.6-0.5,1.1-1.2,1.1h-1c-0.6,0-1.1-0.5-1.1-1.1v-36.8
	C280.7,190.3,281.2,189.8,281.8,189.8z"/>
<circle style="fill:#FFFFFF;" cx="325.6" cy="189.8" r="3.8"/>
<path style="fill:#FFFFFF;" d="M325.1,189.8h1c0.6,0,1.2,0.5,1.2,1.1v30.3c0,0.6-0.5,1.1-1.2,1.1h-1c-0.6,0-1.1-0.5-1.1-1.1v-30.3
	C323.9,190.3,324.4,189.8,325.1,189.8z"/>
<circle style="fill:#5458F7;" cx="273.5" cy="105.1" r="25.4"/>
<circle style="opacity:0.3;enable-background:new    ;" cx="273.5" cy="105.1" r="17.8"/>
<circle style="fill:#5458F7;" cx="332.3" cy="105.1" r="25.4"/>
<circle style="opacity:0.3;enable-background:new    ;" cx="332.3" cy="105.1" r="17.8"/>
</svg>
